<svg width="111" height="25" viewBox="0 0 111 25" fill="none" xmlns="http://www.w3.org/2000/svg">
<g clip-path="url(#clip0_17_1993)">
<path fill-rule="evenodd" clip-rule="evenodd" d="M111 0H0V25H111V0ZM8.17534 12.2932V8.12045H13.5431V6.21818H5.90896V20.4545H13.5431V18.5523H8.17534V14.1955H12.9467V12.2932H8.17534ZM31.4836 20.4545V6.23864H29.0582L24.2272 17.3864L19.3763 6.23864H16.931V20.4545H19.1974V10.7182L23.432 20.4545H25.0026L29.2172 10.7182V20.4545H31.4836ZM44.2238 12.5182C44.5552 11.8773 44.7209 11.1955 44.7209 10.4727C44.7209 9.68182 44.5353 8.96591 44.1642 8.325C43.8063 7.68409 43.2563 7.17955 42.5141 6.81136C41.7852 6.42955 40.8905 6.23864 39.8302 6.23864H35.0589V20.4545H37.3253V14.6864H39.8302C40.97 14.6864 41.9044 14.4886 42.6334 14.0932C43.3623 13.6841 43.8925 13.1591 44.2238 12.5182ZM41.7586 12.1909C41.3345 12.5864 40.6917 12.7841 39.8302 12.7841H37.3253V8.14091H39.8302C41.54 8.14091 42.3948 8.91818 42.3948 10.4727C42.3948 11.2091 42.1828 11.7818 41.7586 12.1909ZM54.4172 18.5727H49.7452V6.23864H47.4788V20.4545H54.4172V18.5727ZM59.6523 19.6773C60.7391 20.2909 61.9253 20.5977 63.2109 20.5977C64.5098 20.5977 65.696 20.2909 66.7695 19.6773C67.8563 19.05 68.7112 18.1841 69.3341 17.0795C69.9571 15.9614 70.2685 14.7068 70.2685 13.3159C70.2685 11.925 69.9571 10.6773 69.3341 9.57273C68.7112 8.46818 67.8563 7.60909 66.7695 6.99545C65.696 6.36818 64.5098 6.05455 63.2109 6.05455C61.9253 6.05455 60.7391 6.36818 59.6523 6.99545C58.5787 7.60909 57.7239 8.46818 57.0877 9.57273C56.4648 10.6773 56.1533 11.925 56.1533 13.3159C56.1533 14.7068 56.4648 15.9614 57.0877 17.0795C57.7239 18.1841 58.5787 19.05 59.6523 19.6773ZM65.6562 17.9386C64.9405 18.3614 64.1254 18.5727 63.2109 18.5727C62.2964 18.5727 61.4813 18.3614 60.7656 17.9386C60.0499 17.5023 59.4866 16.8886 59.0757 16.0977C58.6781 15.2932 58.4793 14.3659 58.4793 13.3159C58.4793 12.2659 58.6781 11.3455 59.0757 10.5545C59.4866 9.76364 60.0499 9.15682 60.7656 8.73409C61.4813 8.31136 62.2964 8.1 63.2109 8.1C64.1254 8.1 64.9405 8.31136 65.6562 8.73409C66.3719 9.15682 66.9286 9.76364 67.3262 10.5545C67.7371 11.3455 67.9425 12.2659 67.9425 13.3159C67.9425 14.3659 67.7371 15.2932 67.3262 16.0977C66.9286 16.8886 66.3719 17.5023 65.6562 17.9386ZM78.7614 15.3L83.3339 6.23864H80.829L77.6282 13.2136L74.4274 6.23864H71.9026L76.495 15.3V20.4545H78.7614V15.3ZM87.9954 12.2932V8.12045H93.3632V6.21818H85.729V20.4545H93.3632V18.5523H87.9954V14.1955H92.7667V12.2932H87.9954ZM99.017 12.2932V8.12045H104.385V6.21818H96.7506V20.4545H104.385V18.5523H99.017V14.1955H103.788V12.2932H99.017Z" fill="url(#paint0_linear_17_1993)"/>
</g>
<defs>
<linearGradient id="paint0_linear_17_1993" x1="6.07463" y1="3.97728" x2="111.213" y2="23.877" gradientUnits="userSpaceOnUse">
<stop stop-color="#3A1078"/>
<stop offset="1" stop-color="#307383"/>
</linearGradient>
<clipPath id="clip0_17_1993">
<rect width="111" height="25" rx="10" fill="white"/>
</clipPath>
</defs>
</svg>
