<svg width="158" height="97" viewBox="0 0 158 97" fill="none" xmlns="http://www.w3.org/2000/svg">
<g clip-path="url(#clip0_17_2658)">
<mask id="mask0_17_2658" style="mask-type:luminance" maskUnits="userSpaceOnUse" x="0" y="0" width="158" height="97">
<path d="M158 0H0V97H158V0Z" fill="white"/>
</mask>
<g mask="url(#mask0_17_2658)">
<g filter="url(#filter0_d_17_2658)">
<path fill-rule="evenodd" clip-rule="evenodd" d="M156.301 10.3929H113.828V53.6965H156.301V10.3929ZM140.811 28.8279C140.427 28.8993 140.007 29.0304 139.55 29.2209C139.55 30.1502 139.514 30.9725 139.442 31.6873C139.394 32.402 139.31 33.0216 139.19 33.5459L134.578 29.1137C134.122 28.6611 133.738 28.256 133.425 27.8984C133.113 27.5172 132.957 27.1479 132.957 26.7906C132.957 26.2901 133.161 25.9446 133.569 25.754C133.978 25.5633 134.494 25.4681 135.119 25.4681C135.503 25.4681 135.863 25.5037 136.199 25.5753C136.56 25.6467 136.872 25.7421 137.136 25.8613C137.448 25.5514 137.677 25.206 137.821 24.8246C137.989 24.4433 138.073 24.0503 138.073 23.6452C138.073 22.8111 137.761 22.132 137.136 21.6078C136.512 21.0598 135.443 20.7857 133.93 20.7857C132.873 20.7857 131.924 20.9169 131.083 21.1789C130.267 21.441 129.57 21.8103 128.994 22.287C128.417 22.7635 127.973 23.3235 127.66 23.9668C127.348 24.6101 127.192 25.3013 127.192 26.0398C127.192 26.6118 127.288 27.2194 127.48 27.8628C127.696 28.5061 128.045 29.1137 128.525 29.6857C127.973 29.924 127.432 30.2337 126.904 30.615C126.375 30.9725 125.895 31.4131 125.463 31.9375C125.03 32.4616 124.682 33.0692 124.418 33.7604C124.154 34.4513 124.022 35.2377 124.022 36.1194C124.022 37.1439 124.214 38.0971 124.598 38.9788C124.982 39.8365 125.547 40.5871 126.291 41.2306C127.036 41.8739 127.949 42.3743 129.03 42.7316C130.11 43.1129 131.36 43.3036 132.777 43.3036C134.17 43.3036 135.431 43.1129 136.56 42.7316C137.713 42.3743 138.734 41.8739 139.622 41.2306L140.307 41.8739C141.22 42.7794 142.156 43.2321 143.117 43.2321C143.91 43.2321 144.594 42.9463 145.171 42.3743C145.747 41.8023 146.059 41.0638 146.108 40.1582L143.333 37.5132C144.318 35.7738 144.81 33.9391 144.81 32.009C144.81 31.5323 144.774 31.0915 144.702 30.6865C144.63 30.2813 144.486 29.9358 144.27 29.65C144.078 29.3401 143.802 29.1019 143.441 28.9351C143.081 28.7683 142.613 28.6848 142.036 28.6848C141.628 28.6848 141.22 28.7325 140.811 28.8279ZM130.615 37.835C130.062 37.2631 129.786 36.5602 129.786 35.7262C129.786 35.202 129.93 34.7134 130.219 34.2608C130.531 33.808 130.975 33.4505 131.552 33.1884L136.163 37.7992C135.683 38.1091 135.179 38.3353 134.65 38.4784C134.122 38.5975 133.617 38.6571 133.137 38.6571C132.032 38.6571 131.191 38.3831 130.615 37.835Z" fill="url(#paint0_linear_17_2658)"/>
</g>
<g filter="url(#filter1_d_17_2658)">
<path d="M10.0662 76.171C8.82031 75.738 7.68768 75.3049 6.66833 74.8719C5.64897 74.4099 4.77119 73.8615 4.035 73.2263C3.2988 72.5912 2.71833 71.8406 2.2936 70.9746C1.89719 70.0796 1.69897 68.997 1.69897 67.7268C1.69897 65.2729 2.61923 63.3098 4.45973 61.8375C6.32854 60.3652 8.93356 59.629 12.2748 59.629C13.4923 59.629 14.625 59.7156 15.6726 59.8888C16.7203 60.0621 17.6123 60.3363 18.3484 60.7116C19.113 61.058 19.7076 61.52 20.1323 62.0973C20.557 62.6459 20.7694 63.2955 20.7694 64.046C20.7694 64.7965 20.5995 65.4461 20.2597 65.9946C19.9199 66.5143 19.5093 66.9617 19.028 67.3371C18.405 66.933 17.5698 66.5865 16.5221 66.2978C15.4744 65.9803 14.3276 65.8214 13.0818 65.8214C11.8076 65.8214 10.8732 66.009 10.2785 66.3844C9.68392 66.7308 9.38661 67.1782 9.38661 67.7268C9.38661 68.1598 9.57065 68.5206 9.93876 68.8094C10.3069 69.0692 10.859 69.3147 11.5952 69.5455L13.8463 70.2817C16.5079 71.1478 18.5467 72.2593 19.9624 73.6161C21.4065 74.9441 22.1285 76.7629 22.1285 79.0723C22.1285 81.5263 21.18 83.5182 19.2828 85.0482C17.3857 86.5495 14.5967 87.3 10.9156 87.3C9.61313 87.3 8.39558 87.1845 7.26295 86.9536C6.15865 86.7514 5.18177 86.4483 4.33231 86.0442C3.51117 85.6112 2.8599 85.0915 2.37854 84.4853C1.92549 83.8501 1.69897 83.1285 1.69897 82.3201C1.69897 81.483 1.93966 80.7755 2.42102 80.1982C2.90237 79.592 3.42622 79.13 3.99252 78.8125C4.78536 79.4477 5.74807 79.9961 6.8807 80.458C8.04162 80.92 9.30166 81.1509 10.6608 81.1509C12.0483 81.1509 13.0251 80.9344 13.5914 80.5013C14.1578 80.0683 14.4409 79.563 14.4409 78.9857C14.4409 78.4084 14.2144 77.9754 13.7613 77.6866C13.3083 77.3691 12.6712 77.066 11.85 76.7772L10.0662 76.171ZM25.0459 73.4429C25.0459 71.1911 25.3857 69.1991 26.0653 67.467C26.7732 65.7348 27.7217 64.2914 28.911 63.1366C30.1286 61.953 31.5443 61.058 33.1583 60.4518C34.8007 59.8455 36.5703 59.5424 38.4674 59.5424C40.3646 59.5424 42.1201 59.8455 43.7341 60.4518C45.3765 61.058 46.8063 61.953 48.0239 63.1366C49.2415 64.2914 50.19 65.7348 50.8696 67.467C51.5775 69.1991 51.9314 71.1911 51.9314 73.4429C51.9314 76.272 51.4217 78.6826 50.4024 80.6746C49.383 82.6376 47.9955 84.1822 46.24 85.308C46.6648 85.5102 47.1603 85.7267 47.7266 85.9576C48.3212 86.1885 48.9299 86.4196 49.5529 86.6505C50.2041 86.8814 50.8696 87.0979 51.5492 87.3C52.2287 87.5309 52.8658 87.733 53.4605 87.9063C53.4888 88.0795 53.5029 88.2238 53.5029 88.3393C53.5029 88.4836 53.5029 88.6135 53.5029 88.729C53.5029 90.3746 53.0782 91.5727 52.2287 92.3232C51.4076 93.0738 50.3174 93.4491 48.9583 93.4491C47.6557 93.4491 46.3109 93.0738 44.9234 92.3232C43.5358 91.6014 42.1201 90.5478 40.676 89.1621L38.8072 87.3866H38.4674C36.5421 87.3866 34.7582 87.0835 33.1158 86.4772C31.4735 85.8421 30.0578 84.9327 28.8685 83.7491C27.6793 82.5655 26.7449 81.1076 26.0653 79.3755C25.3857 77.6433 25.0459 75.6657 25.0459 73.4429ZM32.6911 73.4429C32.6911 76.07 33.2149 78.033 34.2626 79.3321C35.3103 80.6313 36.7119 81.2808 38.4674 81.2808C40.2513 81.2808 41.667 80.6313 42.7148 79.3321C43.7625 78.033 44.2863 76.07 44.2863 73.4429C44.2863 70.8447 43.7625 68.896 42.7148 67.5969C41.6954 66.2978 40.2938 65.6482 38.5099 65.6482C36.7544 65.6482 35.3385 66.2978 34.2626 67.5969C33.2149 68.8671 32.6911 70.8157 32.6911 73.4429ZM79.075 76.9072C79.075 78.4661 78.806 79.8951 78.268 81.1942C77.7583 82.4644 77.0081 83.5615 76.0169 84.4853C75.0259 85.3803 73.8226 86.0731 72.4067 86.5638C70.991 87.0546 69.3911 87.3 67.6072 87.3C65.8234 87.3 64.2237 87.0546 62.8078 86.5638C61.3921 86.0731 60.1887 85.3803 59.1976 84.4853C58.2066 83.5615 57.4421 82.4644 56.904 81.1942C56.3943 79.8951 56.1395 78.4661 56.1395 76.9072V60.3652C56.4511 60.3075 56.9465 60.2353 57.6261 60.1487C58.3056 60.0331 58.957 59.9755 59.5798 59.9755C60.2312 59.9755 60.7974 60.0331 61.2787 60.1487C61.7884 60.2353 62.2131 60.4085 62.5529 60.6683C62.8927 60.9281 63.1476 61.2889 63.3174 61.7509C63.4873 62.2129 63.5723 62.8191 63.5723 63.5697V76.7772C63.5723 78.163 63.9404 79.2455 64.6766 80.025C65.4411 80.8045 66.418 81.1942 67.6072 81.1942C68.8249 81.1942 69.8017 80.8045 70.5379 80.025C71.2742 79.2455 71.6422 78.163 71.6422 76.7772V60.3652C71.9538 60.3075 72.4492 60.2353 73.1287 60.1487C73.8083 60.0331 74.4597 59.9755 75.0825 59.9755C75.7339 59.9755 76.3001 60.0331 76.7814 60.1487C77.2911 60.2353 77.7158 60.4085 78.0556 60.6683C78.3954 60.9281 78.6502 61.2889 78.8201 61.7509C78.99 62.2129 79.075 62.8191 79.075 63.5697V76.9072ZM89.619 61.1447C90.1003 60.8559 90.8224 60.5817 91.7851 60.3219C92.7761 60.0621 93.7673 59.9321 94.7583 59.9321C96.174 59.9321 97.42 60.1487 98.4959 60.5817C99.6002 60.9858 100.308 61.6354 100.62 62.5304C101.129 64.0316 101.681 65.7781 102.276 67.7701C102.871 69.7621 103.465 71.8263 104.06 73.9625C104.654 76.07 105.235 78.163 105.801 80.2415C106.368 82.2912 106.863 84.1099 107.288 85.6978C106.948 86.1019 106.438 86.4196 105.759 86.6505C105.079 86.9103 104.272 87.0402 103.338 87.0402C102.658 87.0402 102.078 86.9825 101.596 86.867C101.143 86.7514 100.761 86.5782 100.45 86.3473C100.166 86.1164 99.9259 85.8133 99.7276 85.438C99.5577 85.0626 99.4019 84.6296 99.2604 84.1388L98.4959 81.1509H90.8083C90.5818 82.017 90.3552 82.912 90.1287 83.8357C89.9022 84.7595 89.6756 85.6545 89.4491 86.5205C89.0528 86.6648 88.628 86.7804 88.1749 86.867C87.7502 86.9825 87.2264 87.0402 86.6034 87.0402C85.1593 87.0402 84.0834 86.7947 83.3755 86.304C82.6959 85.7844 82.3561 85.0771 82.3561 84.1821C82.3561 83.778 82.4127 83.3738 82.526 82.9697C82.6393 82.5655 82.7667 82.0892 82.9083 81.5406C83.1065 80.7612 83.3755 79.7941 83.7152 78.6393C84.0834 77.4845 84.4798 76.2432 84.9045 74.9152C85.3292 73.5584 85.7823 72.1727 86.2636 70.758C86.7449 69.3434 87.198 68.0155 87.6228 66.7741C88.0475 65.5039 88.4298 64.378 88.7695 63.3964C89.1377 62.4148 89.4207 61.6643 89.619 61.1447ZM94.7158 66.7308C94.3194 67.9433 93.8663 69.3001 93.3567 70.8013C92.8753 72.2737 92.4363 73.7749 92.04 75.3049H97.3066C96.9103 73.746 96.4997 72.2304 96.0749 70.758C95.6786 69.2568 95.3104 67.9144 94.9706 66.7308H94.7158ZM118.159 78.1196V86.4339C117.847 86.5205 117.352 86.6071 116.672 86.6938C116.021 86.7804 115.37 86.8237 114.719 86.8237C114.067 86.8237 113.487 86.766 112.977 86.6505C112.496 86.5639 112.085 86.3906 111.745 86.1308C111.434 85.871 111.193 85.5102 111.023 85.0482C110.854 84.5863 110.769 83.98 110.769 83.2295V62.8335C110.769 62.2272 110.924 61.7653 111.236 61.4478C111.576 61.1013 112.029 60.8271 112.595 60.625C113.558 60.2786 114.676 60.0331 115.95 59.8888C117.224 59.7156 118.584 59.629 120.028 59.629C123.935 59.629 126.88 60.4662 128.862 62.1406C130.844 63.8151 131.835 66.0813 131.835 68.9393C131.835 70.7291 131.382 72.2593 130.476 73.5295C129.57 74.7997 128.494 75.7813 127.248 76.4741C128.268 77.8888 129.273 79.2166 130.264 80.458C131.255 81.6995 132.034 82.8254 132.6 83.8357C132.317 84.8461 131.793 85.6255 131.028 86.1741C130.292 86.6938 129.457 86.9536 128.522 86.9536C127.9 86.9536 127.361 86.8813 126.908 86.7371C126.455 86.5928 126.059 86.3906 125.719 86.1308C125.379 85.871 125.068 85.5535 124.785 85.1781C124.502 84.8028 124.233 84.3987 123.978 83.9656L120.41 78.1196H118.159ZM120.835 72.3603C121.911 72.3603 122.76 72.0861 123.383 71.5375C124.006 70.9602 124.318 70.1229 124.318 69.0259C124.318 67.9289 123.964 67.1062 123.256 66.5576C122.576 65.9803 121.486 65.6915 119.985 65.6915C119.561 65.6915 119.221 65.7059 118.966 65.7348C118.711 65.7638 118.428 65.8071 118.116 65.8647V72.3603H120.835ZM136.651 64.3924C136.651 63.151 137.005 62.1696 137.713 61.4478C138.42 60.726 139.383 60.3652 140.601 60.3652H154.617C154.815 60.6827 154.985 61.1013 155.126 61.621C155.296 62.1406 155.381 62.6892 155.381 63.2665C155.381 64.3635 155.141 65.143 154.659 65.6049C154.206 66.0669 153.597 66.2978 152.833 66.2978H143.871V70.325H153.428C153.626 70.6425 153.796 71.0612 153.937 71.5808C154.107 72.0715 154.192 72.6057 154.192 73.183C154.192 74.28 153.966 75.0595 153.513 75.5214C153.059 75.9834 152.451 76.2143 151.686 76.2143H143.871V80.7612H154.787C154.985 81.0787 155.155 81.4973 155.296 82.017C155.466 82.5366 155.551 83.0852 155.551 83.6625C155.551 84.7595 155.31 85.5535 154.829 86.0442C154.376 86.5062 153.767 86.7371 153.003 86.7371H140.601C139.383 86.7371 138.42 86.3763 137.713 85.6545C137.005 84.9327 136.651 83.9513 136.651 82.7098V64.3924Z" fill="url(#paint1_linear_17_2658)"/>
</g>
<g filter="url(#filter2_d_17_2658)">
<path d="M25.0252 13.5454C25.2631 13.9265 25.467 14.4461 25.6369 15.1043C25.8407 15.7279 25.9427 16.3861 25.9427 17.079C25.9427 18.43 25.6539 19.4 25.0762 19.989C24.5326 20.5432 23.785 20.8204 22.8336 20.8204H12.1304V26.6923H23.2923C23.5642 27.0734 23.785 27.5757 23.9549 28.1993C24.1588 28.8229 24.2607 29.4811 24.2607 30.174C24.2607 31.4904 23.9719 32.4431 23.3943 33.032C22.8506 33.5863 22.1031 33.8634 21.1517 33.8634H12.2323V44.8279C11.8586 44.9318 11.264 45.0357 10.4485 45.1397C9.66697 45.2436 8.88546 45.2956 8.10396 45.2956C7.32245 45.2956 6.62589 45.2263 6.01428 45.0877C5.43664 44.9838 4.94396 44.7759 4.53621 44.4641C4.12847 44.1523 3.82267 43.7193 3.61879 43.165C3.41492 42.6107 3.31299 41.8832 3.31299 40.9825V18.3781C3.31299 16.8884 3.73772 15.7106 4.58718 14.8445C5.43664 13.9784 6.59191 13.5454 8.05299 13.5454H25.0252ZM35.4215 14.4807C35.9991 14.1343 36.8656 13.8052 38.0208 13.4934C39.2101 13.1816 40.3993 13.0257 41.5886 13.0257C43.2875 13.0257 44.7826 13.2856 46.0737 13.8052C47.3989 14.2902 48.2484 15.0697 48.6221 16.1436C49.2337 17.945 49.8963 20.0409 50.6099 22.4313C51.3234 24.8216 52.037 27.2986 52.7505 29.8622C53.4641 32.3911 54.1606 34.9027 54.8402 37.397C55.5198 39.8566 56.1144 42.0391 56.6241 43.9445C56.2163 44.4295 55.6047 44.8106 54.7892 45.0877C53.9737 45.3995 53.0053 45.5554 51.8841 45.5554C51.0686 45.5554 50.372 45.4861 49.7944 45.3475C49.2507 45.209 48.792 45.0011 48.4183 44.7239C48.0785 44.4468 47.7896 44.0831 47.5518 43.6327C47.3479 43.1823 47.161 42.6627 46.9912 42.0738L46.0737 38.4882H36.8486C36.5767 39.5275 36.3049 40.6015 36.0331 41.71C35.7613 42.8186 35.4894 43.8925 35.2176 44.9318C34.7419 45.105 34.2322 45.2436 33.6886 45.3475C33.1789 45.4861 32.5503 45.5554 31.8028 45.5554C30.0699 45.5554 28.7787 45.2609 27.9292 44.672C27.1137 44.0484 26.706 43.1997 26.706 42.1257C26.706 41.6407 26.774 41.1557 26.9099 40.6707C27.0458 40.1857 27.1987 39.6141 27.3686 38.9559C27.6064 38.0206 27.9292 36.86 28.337 35.4743C28.7787 34.0886 29.2544 32.599 29.7641 31.0054C30.2737 29.3772 30.8174 27.7143 31.395 26.0168C31.9727 24.3193 32.5163 22.7257 33.026 21.2361C33.5357 19.7118 33.9944 18.3607 34.4021 17.1829C34.8438 16.005 35.1836 15.1043 35.4215 14.4807ZM41.5376 21.1841C41.0619 22.6391 40.5182 24.2673 39.9066 26.0688C39.329 27.8356 38.8023 29.637 38.3266 31.4731H44.6466C44.1709 29.6023 43.6782 27.7836 43.1686 26.0168C42.6929 24.2154 42.2512 22.6045 41.8434 21.1841H41.5376ZM69.7204 44.8279C69.3466 44.9318 68.752 45.0357 67.9365 45.1397C67.155 45.2436 66.3735 45.2956 65.592 45.2956C64.8105 45.2956 64.1139 45.2263 63.5023 45.0877C62.9247 44.9838 62.432 44.7759 62.0243 44.4641C61.6165 44.1523 61.3107 43.7193 61.1068 43.165C60.903 42.6107 60.801 41.8832 60.801 40.9825V13.5454C61.1748 13.4761 61.7694 13.3895 62.5849 13.2856C63.4004 13.147 64.1819 13.0777 64.9294 13.0777C65.7109 13.0777 66.3905 13.147 66.9681 13.2856C67.5797 13.3895 68.0894 13.5973 68.4972 13.9091C68.9049 14.2209 69.2107 14.654 69.4146 15.2082C69.6185 15.7625 69.7204 16.49 69.7204 17.3907V44.8279ZM85.1986 34.8507V44.8279C84.8248 44.9318 84.2302 45.0357 83.4147 45.1397C82.6332 45.2436 81.8517 45.2956 81.0702 45.2956C80.2887 45.2956 79.5922 45.2263 78.9805 45.0877C78.4029 44.9838 77.9102 44.7759 77.5025 44.4641C77.1287 44.1523 76.8399 43.7193 76.636 43.165C76.4322 42.6107 76.3302 41.8832 76.3302 40.9825V16.5073C76.3302 15.7798 76.5171 15.2256 76.8909 14.8445C77.2986 14.4288 77.8423 14.0997 78.5218 13.8572C79.6771 13.4415 81.0193 13.147 82.5483 12.9738C84.0773 12.7659 85.7083 12.662 87.4412 12.662C92.1302 12.662 95.664 13.6666 98.0425 15.6759C100.421 17.6852 101.61 20.4047 101.61 23.8343C101.61 25.9822 101.067 27.8182 99.9793 29.3425C98.8919 30.8668 97.6008 32.0447 96.1057 32.8761C97.3289 34.5736 98.5352 36.1672 99.7244 37.6568C100.914 39.1465 101.848 40.4975 102.528 41.71C102.188 42.9225 101.559 43.8579 100.642 44.5161C99.7584 45.1397 98.756 45.4515 97.6347 45.4515C96.8872 45.4515 96.2416 45.3648 95.698 45.1916C95.1543 45.0184 94.6786 44.7759 94.2709 44.4641C93.8631 44.1523 93.4894 43.7713 93.1496 43.3209C92.8098 42.8706 92.487 42.3856 92.1812 41.8659L87.8999 34.8507H85.1986ZM88.4096 27.9395C89.7008 27.9395 90.7201 27.6104 91.4676 26.9522C92.2152 26.2593 92.5889 25.2547 92.5889 23.9382C92.5889 22.6218 92.1642 21.6345 91.3147 20.9763C90.4993 20.2834 89.1911 19.937 87.3902 19.937C86.8805 19.937 86.4728 19.9543 86.167 19.989C85.8612 20.0236 85.5214 20.0756 85.1476 20.1448V27.9395H88.4096Z" fill="url(#paint2_linear_17_2658)"/>
</g>
</g>
</g>
<defs>
<filter id="filter0_d_17_2658" x="109.828" y="10.3929" width="50.4731" height="51.3036" filterUnits="userSpaceOnUse" color-interpolation-filters="sRGB">
<feFlood flood-opacity="0" result="BackgroundImageFix"/>
<feColorMatrix in="SourceAlpha" type="matrix" values="0 0 0 0 0 0 0 0 0 0 0 0 0 0 0 0 0 0 127 0" result="hardAlpha"/>
<feOffset dy="4"/>
<feGaussianBlur stdDeviation="2"/>
<feComposite in2="hardAlpha" operator="out"/>
<feColorMatrix type="matrix" values="0 0 0 0 0 0 0 0 0 0 0 0 0 0 0 0 0 0 0.25 0"/>
<feBlend mode="normal" in2="BackgroundImageFix" result="effect1_dropShadow_17_2658"/>
<feBlend mode="normal" in="SourceGraphic" in2="effect1_dropShadow_17_2658" result="shape"/>
</filter>
<filter id="filter1_d_17_2658" x="-0.301025" y="59.5424" width="157.852" height="37.9067" filterUnits="userSpaceOnUse" color-interpolation-filters="sRGB">
<feFlood flood-opacity="0" result="BackgroundImageFix"/>
<feColorMatrix in="SourceAlpha" type="matrix" values="0 0 0 0 0 0 0 0 0 0 0 0 0 0 0 0 0 0 127 0" result="hardAlpha"/>
<feOffset dy="2"/>
<feGaussianBlur stdDeviation="1"/>
<feComposite in2="hardAlpha" operator="out"/>
<feColorMatrix type="matrix" values="0 0 0 0 0 0 0 0 0 0 0 0 0 0 0 0 0 0 0.25 0"/>
<feBlend mode="normal" in2="BackgroundImageFix" result="effect1_dropShadow_17_2658"/>
<feBlend mode="normal" in="SourceGraphic" in2="effect1_dropShadow_17_2658" result="shape"/>
</filter>
<filter id="filter2_d_17_2658" x="1.31299" y="12.662" width="103.215" height="36.8934" filterUnits="userSpaceOnUse" color-interpolation-filters="sRGB">
<feFlood flood-opacity="0" result="BackgroundImageFix"/>
<feColorMatrix in="SourceAlpha" type="matrix" values="0 0 0 0 0 0 0 0 0 0 0 0 0 0 0 0 0 0 127 0" result="hardAlpha"/>
<feOffset dy="2"/>
<feGaussianBlur stdDeviation="1"/>
<feComposite in2="hardAlpha" operator="out"/>
<feColorMatrix type="matrix" values="0 0 0 0 0 0 0 0 0 0 0 0 0 0 0 0 0 0 0.25 0"/>
<feBlend mode="normal" in2="BackgroundImageFix" result="effect1_dropShadow_17_2658"/>
<feBlend mode="normal" in="SourceGraphic" in2="effect1_dropShadow_17_2658" result="shape"/>
</filter>
<linearGradient id="paint0_linear_17_2658" x1="137.424" y1="14.603" x2="134.972" y2="53.6906" gradientUnits="userSpaceOnUse">
<stop stop-color="#989898"/>
<stop offset="1" stop-color="#454545"/>
</linearGradient>
<linearGradient id="paint1_linear_17_2658" x1="79.0001" y1="41.5714" x2="79.0001" y2="110.857" gradientUnits="userSpaceOnUse">
<stop/>
<stop offset="1" stop-color="#7D7D7D"/>
</linearGradient>
<linearGradient id="paint2_linear_17_2658" x1="52.6667" y1="-10.3928" x2="52.6667" y2="72.75" gradientUnits="userSpaceOnUse">
<stop/>
<stop offset="1" stop-color="#7D7D7D"/>
</linearGradient>
<clipPath id="clip0_17_2658">
<rect width="158" height="97" fill="white"/>
</clipPath>
</defs>
</svg>
