<svg width="307" height="76" viewBox="0 0 307 76" fill="none" xmlns="http://www.w3.org/2000/svg">
<mask id="mask0_72_1910" style="mask-type:alpha" maskUnits="userSpaceOnUse" x="27" y="8" width="41" height="40">
<rect x="27.5" y="8" width="40" height="40" fill="#D9D9D9"/>
</mask>
<g mask="url(#mask0_72_1910)">
<path d="M47.5 20.5001C46.6944 20.5001 46.0067 20.2151 45.4367 19.6451C44.8678 19.0762 44.5833 18.389 44.5833 17.5834C44.5833 16.7779 44.8678 16.0901 45.4367 15.5201C46.0067 14.9512 46.6944 14.6667 47.5 14.6667C48.3056 14.6667 48.9933 14.9512 49.5633 15.5201C50.1322 16.0901 50.4167 16.7779 50.4167 17.5834C50.4167 18.389 50.1322 19.0762 49.5633 19.6451C48.9933 20.2151 48.3056 20.5001 47.5 20.5001ZM44.1667 41.3334V33.0001H42.5V25.5001C42.5 24.5834 42.8267 23.7984 43.48 23.1451C44.1322 22.4929 44.9167 22.1667 45.8333 22.1667H49.1667C50.0833 22.1667 50.8683 22.4929 51.5217 23.1451C52.1739 23.7984 52.5 24.5834 52.5 25.5001V33.0001H50.8333V41.3334H44.1667Z" fill="#419B8B"/>
</g>
<path d="M116.207 28.7071C116.598 28.3166 116.598 27.6834 116.207 27.2929L109.843 20.9289C109.453 20.5384 108.819 20.5384 108.429 20.9289C108.038 21.3195 108.038 21.9526 108.429 22.3431L114.086 28L108.429 33.6569C108.038 34.0474 108.038 34.6805 108.429 35.0711C108.819 35.4616 109.453 35.4616 109.843 35.0711L116.207 28.7071ZM90.5 29H115.5V27H90.5V29Z" fill="#3A1078"/>
<mask id="mask1_72_1910" style="mask-type:alpha" maskUnits="userSpaceOnUse" x="138" y="8" width="41" height="40">
<rect x="138.5" y="8" width="40" height="40" fill="#D9D9D9"/>
</mask>
<g mask="url(#mask1_72_1910)">
<path d="M158.5 44.6667C156.222 44.6667 154.069 44.229 152.042 43.3534C150.014 42.479 148.243 41.2845 146.73 39.7701C145.216 38.2567 144.021 36.4862 143.147 34.4584C142.271 32.4306 141.833 30.2779 141.833 28.0001C141.833 25.6945 142.271 23.5351 143.147 21.5217C144.021 19.5073 145.216 17.7434 146.73 16.2301C148.243 14.7156 150.014 13.5206 152.042 12.6451C154.069 11.7706 156.222 11.3334 158.5 11.3334C159.389 11.3334 160.243 11.3956 161.063 11.5201C161.882 11.6456 162.694 11.8334 163.5 12.0834V16.3334C163.5 17.2501 163.174 18.0345 162.522 18.6867C161.868 19.3401 161.083 19.6667 160.167 19.6667H156.833V23.0001C156.833 23.4723 156.674 23.8679 156.355 24.1867C156.035 24.5067 155.639 24.6667 155.167 24.6667H151.833V28.0001H161.833C162.306 28.0001 162.702 28.1595 163.022 28.4784C163.341 28.7984 163.5 29.1945 163.5 29.6667V34.6667H165.167C165.917 34.6667 166.577 34.889 167.147 35.3334C167.716 35.7779 168.111 36.3334 168.333 37.0001C169.417 35.7779 170.271 34.4101 170.897 32.8967C171.521 31.3823 171.833 29.7501 171.833 28.0001C171.833 27.6945 171.819 27.4167 171.792 27.1667C171.764 26.9167 171.722 26.639 171.667 26.3334H175.083C175.139 26.639 175.167 26.9167 175.167 27.1667V28.0001C175.167 30.2779 174.729 32.4306 173.853 34.4584C172.979 36.4862 171.784 38.2567 170.27 39.7701C168.757 41.2845 166.993 42.479 164.978 43.3534C162.965 44.229 160.806 44.6667 158.5 44.6667ZM156.833 41.2501V38.0001C155.917 38.0001 155.132 37.674 154.48 37.0217C153.827 36.3684 153.5 35.5834 153.5 34.6667V33.0001L145.5 25.0001C145.417 25.5001 145.34 26.0001 145.27 26.5001C145.201 27.0001 145.167 27.5001 145.167 28.0001C145.167 31.4445 146.285 34.4095 148.522 36.8951C150.757 39.3817 153.528 40.8334 156.833 41.2501ZM168.5 23.0001C168.028 23.0001 167.632 22.8401 167.313 22.5201C166.993 22.2012 166.833 21.8056 166.833 21.3334V16.3334C166.833 15.8612 166.993 15.4651 167.313 15.1451C167.632 14.8262 168.028 14.6667 168.5 14.6667V13.0001C168.5 12.0834 168.826 11.2984 169.478 10.6451C170.132 9.99286 170.917 9.66675 171.833 9.66675C172.75 9.66675 173.535 9.99286 174.188 10.6451C174.841 11.2984 175.167 12.0834 175.167 13.0001V14.6667C175.639 14.6667 176.034 14.8262 176.353 15.1451C176.673 15.4651 176.833 15.8612 176.833 16.3334V21.3334C176.833 21.8056 176.673 22.2012 176.353 22.5201C176.034 22.8401 175.639 23.0001 175.167 23.0001H168.5ZM170.167 14.6667H173.5V13.0001C173.5 12.5279 173.34 12.1317 173.02 11.8117C172.701 11.4929 172.306 11.3334 171.833 11.3334C171.361 11.3334 170.966 11.4929 170.647 11.8117C170.327 12.1317 170.167 12.5279 170.167 13.0001V14.6667Z" fill="#4E31AA"/>
</g>
<path d="M227.207 28.7071C227.598 28.3166 227.598 27.6834 227.207 27.2929L220.843 20.9289C220.453 20.5384 219.819 20.5384 219.429 20.9289C219.038 21.3195 219.038 21.9526 219.429 22.3431L225.086 28L219.429 33.6569C219.038 34.0474 219.038 34.6805 219.429 35.0711C219.819 35.4616 220.453 35.4616 220.843 35.0711L227.207 28.7071ZM201.5 29H226.5V27H201.5V29Z" fill="#3A1078"/>
<path d="M249.5 43V19.6667H256.167V13H272.833V26.3333H279.5V43H266.167V36.3333H262.833V43H249.5ZM252.833 39.6667H256.167V36.3333H252.833V39.6667ZM252.833 33H256.167V29.6667H252.833V33ZM252.833 26.3333H256.167V23H252.833V26.3333ZM259.5 33H262.833V29.6667H259.5V33ZM259.5 26.3333H262.833V23H259.5V26.3333ZM259.5 19.6667H262.833V16.3333H259.5V19.6667ZM266.167 33H269.5V29.6667H266.167V33ZM266.167 26.3333H269.5V23H266.167V26.3333ZM266.167 19.6667H269.5V16.3333H266.167V19.6667ZM272.833 39.6667H276.167V36.3333H272.833V39.6667ZM272.833 33H276.167V29.6667H272.833V33Z" fill="#265A7F"/>
<path d="M42.8806 52.624L40.0486 58.084V61H38.3686V58.084L35.5246 52.624H37.4206L39.2206 56.452L41.0086 52.624H42.8806ZM46.8015 61.108C46.1615 61.108 45.5855 60.968 45.0735 60.688C44.5615 60.4 44.1575 59.996 43.8615 59.476C43.5735 58.956 43.4295 58.356 43.4295 57.676C43.4295 56.996 43.5775 56.396 43.8735 55.876C44.1775 55.356 44.5895 54.956 45.1095 54.676C45.6295 54.388 46.2095 54.244 46.8495 54.244C47.4895 54.244 48.0695 54.388 48.5895 54.676C49.1095 54.956 49.5175 55.356 49.8135 55.876C50.1175 56.396 50.2695 56.996 50.2695 57.676C50.2695 58.356 50.1135 58.956 49.8015 59.476C49.4975 59.996 49.0815 60.4 48.5535 60.688C48.0335 60.968 47.4495 61.108 46.8015 61.108ZM46.8015 59.644C47.1055 59.644 47.3895 59.572 47.6535 59.428C47.9255 59.276 48.1415 59.052 48.3015 58.756C48.4615 58.46 48.5415 58.1 48.5415 57.676C48.5415 57.044 48.3735 56.56 48.0375 56.224C47.7095 55.88 47.3055 55.708 46.8255 55.708C46.3455 55.708 45.9415 55.88 45.6135 56.224C45.2935 56.56 45.1335 57.044 45.1335 57.676C45.1335 58.308 45.2895 58.796 45.6015 59.14C45.9215 59.476 46.3215 59.644 46.8015 59.644ZM57.7778 54.352V61H56.0858V60.16C55.8698 60.448 55.5858 60.676 55.2338 60.844C54.8898 61.004 54.5138 61.084 54.1058 61.084C53.5858 61.084 53.1258 60.976 52.7258 60.76C52.3258 60.536 52.0098 60.212 51.7778 59.788C51.5538 59.356 51.4418 58.844 51.4418 58.252V54.352H53.1218V58.012C53.1218 58.54 53.2538 58.948 53.5178 59.236C53.7818 59.516 54.1418 59.656 54.5978 59.656C55.0618 59.656 55.4258 59.516 55.6898 59.236C55.9538 58.948 56.0858 58.54 56.0858 58.012V54.352H57.7778Z" fill="black"/>
<path d="M123.242 52.624V53.98H119.75V56.128H122.426V57.46H119.75V61H118.07V52.624H123.242ZM124.001 57.652C124.001 56.98 124.133 56.384 124.397 55.864C124.669 55.344 125.033 54.944 125.489 54.664C125.953 54.384 126.469 54.244 127.037 54.244C127.533 54.244 127.965 54.344 128.333 54.544C128.709 54.744 129.009 54.996 129.233 55.3V54.352H130.925V61H129.233V60.028C129.017 60.34 128.717 60.6 128.333 60.808C127.957 61.008 127.521 61.108 127.025 61.108C126.465 61.108 125.953 60.964 125.489 60.676C125.033 60.388 124.669 59.984 124.397 59.464C124.133 58.936 124.001 58.332 124.001 57.652ZM129.233 57.676C129.233 57.268 129.153 56.92 128.993 56.632C128.833 56.336 128.617 56.112 128.345 55.96C128.073 55.8 127.781 55.72 127.469 55.72C127.157 55.72 126.869 55.796 126.605 55.948C126.341 56.1 126.125 56.324 125.957 56.62C125.797 56.908 125.717 57.252 125.717 57.652C125.717 58.052 125.797 58.404 125.957 58.708C126.125 59.004 126.341 59.232 126.605 59.392C126.877 59.552 127.165 59.632 127.469 59.632C127.781 59.632 128.073 59.556 128.345 59.404C128.617 59.244 128.833 59.02 128.993 58.732C129.153 58.436 129.233 58.084 129.233 57.676ZM133.418 53.56C133.122 53.56 132.874 53.468 132.674 53.284C132.482 53.092 132.386 52.856 132.386 52.576C132.386 52.296 132.482 52.064 132.674 51.88C132.874 51.688 133.122 51.592 133.418 51.592C133.714 51.592 133.958 51.688 134.15 51.88C134.35 52.064 134.45 52.296 134.45 52.576C134.45 52.856 134.35 53.092 134.15 53.284C133.958 53.468 133.714 53.56 133.418 53.56ZM134.246 54.352V61H132.566V54.352H134.246ZM137.586 55.384C137.802 55.032 138.082 54.756 138.426 54.556C138.778 54.356 139.178 54.256 139.626 54.256V56.02H139.182C138.654 56.02 138.254 56.144 137.982 56.392C137.718 56.64 137.586 57.072 137.586 57.688V61H135.906V54.352H137.586V55.384ZM150.061 61L149.149 60.1C148.373 60.796 147.425 61.144 146.305 61.144C145.689 61.144 145.145 61.04 144.673 60.832C144.209 60.616 143.849 60.316 143.593 59.932C143.337 59.54 143.209 59.088 143.209 58.576C143.209 58.024 143.365 57.528 143.677 57.088C143.989 56.648 144.449 56.292 145.057 56.02C144.841 55.756 144.685 55.504 144.589 55.264C144.493 55.016 144.445 54.752 144.445 54.472C144.445 54.088 144.545 53.744 144.745 53.44C144.945 53.128 145.229 52.884 145.597 52.708C145.973 52.532 146.409 52.444 146.905 52.444C147.409 52.444 147.841 52.54 148.201 52.732C148.561 52.924 148.829 53.18 149.005 53.5C149.181 53.82 149.257 54.176 149.233 54.568H147.601C147.609 54.304 147.545 54.104 147.409 53.968C147.273 53.824 147.089 53.752 146.857 53.752C146.633 53.752 146.445 53.82 146.293 53.956C146.149 54.084 146.077 54.252 146.077 54.46C146.077 54.66 146.137 54.86 146.257 55.06C146.377 55.252 146.573 55.492 146.845 55.78L148.957 57.868C148.973 57.852 148.985 57.836 148.993 57.82C149.001 57.804 149.009 57.788 149.017 57.772L149.701 56.632H151.453L150.613 58.108C150.453 58.42 150.281 58.716 150.097 58.996L152.125 61H150.061ZM146.353 59.752C147.009 59.752 147.589 59.52 148.093 59.056L146.029 57.016C145.253 57.36 144.865 57.848 144.865 58.48C144.865 58.84 145.001 59.144 145.273 59.392C145.545 59.632 145.905 59.752 146.353 59.752ZM158.708 61.084C158.124 61.084 157.596 60.984 157.124 60.784C156.66 60.584 156.292 60.296 156.02 59.92C155.748 59.544 155.608 59.1 155.6 58.588H157.4C157.424 58.932 157.544 59.204 157.76 59.404C157.984 59.604 158.288 59.704 158.672 59.704C159.064 59.704 159.372 59.612 159.596 59.428C159.82 59.236 159.932 58.988 159.932 58.684C159.932 58.436 159.856 58.232 159.704 58.072C159.552 57.912 159.36 57.788 159.128 57.7C158.904 57.604 158.592 57.5 158.192 57.388C157.648 57.228 157.204 57.072 156.86 56.92C156.524 56.76 156.232 56.524 155.984 56.212C155.744 55.892 155.624 55.468 155.624 54.94C155.624 54.444 155.748 54.012 155.996 53.644C156.244 53.276 156.592 52.996 157.04 52.804C157.488 52.604 158 52.504 158.576 52.504C159.44 52.504 160.14 52.716 160.676 53.14C161.22 53.556 161.52 54.14 161.576 54.892H159.728C159.712 54.604 159.588 54.368 159.356 54.184C159.132 53.992 158.832 53.896 158.456 53.896C158.128 53.896 157.864 53.98 157.664 54.148C157.472 54.316 157.376 54.56 157.376 54.88C157.376 55.104 157.448 55.292 157.592 55.444C157.744 55.588 157.928 55.708 158.144 55.804C158.368 55.892 158.68 55.996 159.08 56.116C159.624 56.276 160.068 56.436 160.412 56.596C160.756 56.756 161.052 56.996 161.3 57.316C161.548 57.636 161.672 58.056 161.672 58.576C161.672 59.024 161.556 59.44 161.324 59.824C161.092 60.208 160.752 60.516 160.304 60.748C159.856 60.972 159.324 61.084 158.708 61.084ZM162.697 57.664C162.697 57 162.833 56.412 163.105 55.9C163.385 55.38 163.761 54.976 164.233 54.688C164.705 54.4 165.225 54.256 165.793 54.256C166.265 54.256 166.681 54.348 167.041 54.532C167.409 54.708 167.705 54.936 167.929 55.216V54.352H169.621V64.168H167.929V60.088C167.705 60.376 167.405 60.616 167.029 60.808C166.653 61 166.229 61.096 165.757 61.096C165.197 61.096 164.681 60.952 164.209 60.664C163.745 60.368 163.377 59.96 163.105 59.44C162.833 58.92 162.697 58.328 162.697 57.664ZM167.929 57.676C167.929 57.268 167.845 56.916 167.677 56.62C167.509 56.324 167.289 56.1 167.017 55.948C166.753 55.796 166.469 55.72 166.165 55.72C165.869 55.72 165.585 55.796 165.313 55.948C165.049 56.1 164.833 56.324 164.665 56.62C164.497 56.908 164.413 57.256 164.413 57.664C164.413 58.072 164.497 58.428 164.665 58.732C164.833 59.028 165.049 59.252 165.313 59.404C165.585 59.556 165.869 59.632 166.165 59.632C166.469 59.632 166.753 59.556 167.017 59.404C167.289 59.252 167.509 59.028 167.677 58.732C167.845 58.436 167.929 58.084 167.929 57.676ZM177.538 54.352V61H175.846V60.16C175.63 60.448 175.346 60.676 174.994 60.844C174.65 61.004 174.274 61.084 173.866 61.084C173.346 61.084 172.886 60.976 172.486 60.76C172.086 60.536 171.77 60.212 171.538 59.788C171.314 59.356 171.202 58.844 171.202 58.252V54.352H172.882V58.012C172.882 58.54 173.014 58.948 173.278 59.236C173.542 59.516 173.902 59.656 174.358 59.656C174.822 59.656 175.186 59.516 175.45 59.236C175.714 58.948 175.846 58.54 175.846 58.012V54.352H177.538ZM178.763 57.652C178.763 56.98 178.895 56.384 179.159 55.864C179.431 55.344 179.795 54.944 180.251 54.664C180.715 54.384 181.231 54.244 181.799 54.244C182.295 54.244 182.727 54.344 183.095 54.544C183.471 54.744 183.771 54.996 183.995 55.3V54.352H185.687V61H183.995V60.028C183.779 60.34 183.479 60.6 183.095 60.808C182.719 61.008 182.283 61.108 181.787 61.108C181.227 61.108 180.715 60.964 180.251 60.676C179.795 60.388 179.431 59.984 179.159 59.464C178.895 58.936 178.763 58.332 178.763 57.652ZM183.995 57.676C183.995 57.268 183.915 56.92 183.755 56.632C183.595 56.336 183.379 56.112 183.107 55.96C182.835 55.8 182.543 55.72 182.231 55.72C181.919 55.72 181.631 55.796 181.367 55.948C181.103 56.1 180.887 56.324 180.719 56.62C180.559 56.908 180.479 57.252 180.479 57.652C180.479 58.052 180.559 58.404 180.719 58.708C180.887 59.004 181.103 59.232 181.367 59.392C181.639 59.552 181.927 59.632 182.231 59.632C182.543 59.632 182.835 59.556 183.107 59.404C183.379 59.244 183.595 59.02 183.755 58.732C183.915 58.436 183.995 58.084 183.995 57.676ZM189.008 55.384C189.224 55.032 189.504 54.756 189.848 54.556C190.2 54.356 190.6 54.256 191.048 54.256V56.02H190.604C190.076 56.02 189.676 56.144 189.404 56.392C189.14 56.64 189.008 57.072 189.008 57.688V61H187.328V54.352H189.008V55.384ZM198.36 57.532C198.36 57.772 198.344 57.988 198.312 58.18H193.452C193.492 58.66 193.66 59.036 193.956 59.308C194.252 59.58 194.616 59.716 195.048 59.716C195.672 59.716 196.116 59.448 196.38 58.912H198.192C198 59.552 197.632 60.08 197.088 60.496C196.544 60.904 195.876 61.108 195.084 61.108C194.444 61.108 193.868 60.968 193.356 60.688C192.852 60.4 192.456 59.996 192.168 59.476C191.888 58.956 191.748 58.356 191.748 57.676C191.748 56.988 191.888 56.384 192.168 55.864C192.448 55.344 192.84 54.944 193.344 54.664C193.848 54.384 194.428 54.244 195.084 54.244C195.716 54.244 196.28 54.38 196.776 54.652C197.28 54.924 197.668 55.312 197.94 55.816C198.22 56.312 198.36 56.884 198.36 57.532ZM196.62 57.052C196.612 56.62 196.456 56.276 196.152 56.02C195.848 55.756 195.476 55.624 195.036 55.624C194.62 55.624 194.268 55.752 193.98 56.008C193.7 56.256 193.528 56.604 193.464 57.052H196.62Z" fill="black"/>
<path d="M234.469 55.8C234.469 54.976 234.653 54.24 235.021 53.592C235.397 52.936 235.905 52.428 236.545 52.068C237.193 51.7 237.917 51.516 238.717 51.516C239.653 51.516 240.473 51.756 241.177 52.236C241.881 52.716 242.373 53.38 242.653 54.228H240.721C240.529 53.828 240.257 53.528 239.905 53.328C239.561 53.128 239.161 53.028 238.705 53.028C238.217 53.028 237.781 53.144 237.397 53.376C237.021 53.6 236.725 53.92 236.509 54.336C236.301 54.752 236.197 55.24 236.197 55.8C236.197 56.352 236.301 56.84 236.509 57.264C236.725 57.68 237.021 58.004 237.397 58.236C237.781 58.46 238.217 58.572 238.705 58.572C239.161 58.572 239.561 58.472 239.905 58.272C240.257 58.064 240.529 57.76 240.721 57.36H242.653C242.373 58.216 241.881 58.884 241.177 59.364C240.481 59.836 239.661 60.072 238.717 60.072C237.917 60.072 237.193 59.892 236.545 59.532C235.905 59.164 235.397 58.656 235.021 58.008C234.653 57.36 234.469 56.624 234.469 55.8ZM247.04 60.108C246.4 60.108 245.824 59.968 245.312 59.688C244.8 59.4 244.396 58.996 244.1 58.476C243.812 57.956 243.668 57.356 243.668 56.676C243.668 55.996 243.816 55.396 244.112 54.876C244.416 54.356 244.828 53.956 245.348 53.676C245.868 53.388 246.448 53.244 247.088 53.244C247.728 53.244 248.308 53.388 248.828 53.676C249.348 53.956 249.756 54.356 250.052 54.876C250.356 55.396 250.508 55.996 250.508 56.676C250.508 57.356 250.352 57.956 250.04 58.476C249.736 58.996 249.32 59.4 248.792 59.688C248.272 59.968 247.688 60.108 247.04 60.108ZM247.04 58.644C247.344 58.644 247.628 58.572 247.892 58.428C248.164 58.276 248.38 58.052 248.54 57.756C248.7 57.46 248.78 57.1 248.78 56.676C248.78 56.044 248.612 55.56 248.276 55.224C247.948 54.88 247.544 54.708 247.064 54.708C246.584 54.708 246.18 54.88 245.852 55.224C245.532 55.56 245.372 56.044 245.372 56.676C245.372 57.308 245.528 57.796 245.84 58.14C246.16 58.476 246.56 58.644 247.04 58.644ZM259.996 53.256C260.812 53.256 261.468 53.508 261.964 54.012C262.468 54.508 262.72 55.204 262.72 56.1V60H261.04V56.328C261.04 55.808 260.908 55.412 260.644 55.14C260.38 54.86 260.02 54.72 259.564 54.72C259.108 54.72 258.744 54.86 258.472 55.14C258.208 55.412 258.076 55.808 258.076 56.328V60H256.396V56.328C256.396 55.808 256.264 55.412 256 55.14C255.736 54.86 255.376 54.72 254.92 54.72C254.456 54.72 254.088 54.86 253.816 55.14C253.552 55.412 253.42 55.808 253.42 56.328V60H251.74V53.352H253.42V54.156C253.636 53.876 253.912 53.656 254.248 53.496C254.592 53.336 254.968 53.256 255.376 53.256C255.896 53.256 256.36 53.368 256.768 53.592C257.176 53.808 257.492 54.12 257.716 54.528C257.932 54.144 258.244 53.836 258.652 53.604C259.068 53.372 259.516 53.256 259.996 53.256ZM265.994 54.312C266.21 54.008 266.506 53.756 266.882 53.556C267.266 53.348 267.702 53.244 268.19 53.244C268.758 53.244 269.27 53.384 269.726 53.664C270.19 53.944 270.554 54.344 270.818 54.864C271.09 55.376 271.226 55.972 271.226 56.652C271.226 57.332 271.09 57.936 270.818 58.464C270.554 58.984 270.19 59.388 269.726 59.676C269.27 59.964 268.758 60.108 268.19 60.108C267.702 60.108 267.27 60.008 266.894 59.808C266.526 59.608 266.226 59.356 265.994 59.052V63.168H264.314V53.352H265.994V54.312ZM269.51 56.652C269.51 56.252 269.426 55.908 269.258 55.62C269.098 55.324 268.882 55.1 268.61 54.948C268.346 54.796 268.058 54.72 267.746 54.72C267.442 54.72 267.154 54.8 266.882 54.96C266.618 55.112 266.402 55.336 266.234 55.632C266.074 55.928 265.994 56.276 265.994 56.676C265.994 57.076 266.074 57.424 266.234 57.72C266.402 58.016 266.618 58.244 266.882 58.404C267.154 58.556 267.442 58.632 267.746 58.632C268.058 58.632 268.346 58.552 268.61 58.392C268.882 58.232 269.098 58.004 269.258 57.708C269.426 57.412 269.51 57.06 269.51 56.652ZM272.015 56.652C272.015 55.98 272.147 55.384 272.411 54.864C272.683 54.344 273.047 53.944 273.503 53.664C273.967 53.384 274.483 53.244 275.051 53.244C275.547 53.244 275.979 53.344 276.347 53.544C276.723 53.744 277.023 53.996 277.247 54.3V53.352H278.939V60H277.247V59.028C277.031 59.34 276.731 59.6 276.347 59.808C275.971 60.008 275.535 60.108 275.039 60.108C274.479 60.108 273.967 59.964 273.503 59.676C273.047 59.388 272.683 58.984 272.411 58.464C272.147 57.936 272.015 57.332 272.015 56.652ZM277.247 56.676C277.247 56.268 277.167 55.92 277.007 55.632C276.847 55.336 276.631 55.112 276.359 54.96C276.087 54.8 275.795 54.72 275.483 54.72C275.171 54.72 274.883 54.796 274.619 54.948C274.355 55.1 274.139 55.324 273.971 55.62C273.811 55.908 273.731 56.252 273.731 56.652C273.731 57.052 273.811 57.404 273.971 57.708C274.139 58.004 274.355 58.232 274.619 58.392C274.891 58.552 275.179 58.632 275.483 58.632C275.795 58.632 276.087 58.556 276.359 58.404C276.631 58.244 276.847 58.02 277.007 57.732C277.167 57.436 277.247 57.084 277.247 56.676ZM284.264 53.256C285.056 53.256 285.696 53.508 286.184 54.012C286.672 54.508 286.916 55.204 286.916 56.1V60H285.236V56.328C285.236 55.8 285.104 55.396 284.84 55.116C284.576 54.828 284.216 54.684 283.76 54.684C283.296 54.684 282.928 54.828 282.656 55.116C282.392 55.396 282.26 55.8 282.26 56.328V60H280.58V53.352H282.26V54.18C282.484 53.892 282.768 53.668 283.112 53.508C283.464 53.34 283.848 53.256 284.264 53.256ZM294.874 53.352L290.758 63.144H288.97L290.41 59.832L287.746 53.352H289.63L291.346 57.996L293.086 53.352H294.874Z" fill="black"/>
</svg>
